<svg xmlns="http://www.w3.org/2000/svg" xmlns:xlink="http://www.w3.org/1999/xlink" width="2000" zoomAndPan="magnify" viewBox="0 0 1500 1499.999933" height="2000" preserveAspectRatio="xMidYMid meet" version="1.0"><defs><g/><clipPath id="a3bcaedc24"><path d="M 644.253906 370.523438 L 957.753906 370.523438 L 957.753906 722 L 644.253906 722 Z M 644.253906 370.523438 " clip-rule="nonzero"/></clipPath><clipPath id="659bc16384"><rect x="0" width="970" y="0" height="172"/></clipPath><clipPath id="c071b56ebc"><rect x="0" width="775" y="0" height="35"/></clipPath></defs><rect x="-150" width="1800" fill="#ffffff" y="-149.999993" height="1799.99992" fill-opacity="1"/><rect x="-150" width="1800" fill="#012b27" y="-149.999993" height="1799.99992" fill-opacity="1"/><g clip-path="url(#a3bcaedc24)"><path fill="#ffefb3" d="M 644.253906 721.578125 C 644.566406 721.449219 651.246094 719.789062 659.09375 717.886719 L 673.367188 714.429688 L 673.878906 702.703125 L 682.066406 702.070312 C 703.003906 700.445312 741.300781 697.273438 744.75 696.882812 C 747.175781 696.605469 747.835938 696.425781 746.542969 696.386719 C 735.683594 696.089844 694.277344 694.058594 694.039062 693.8125 C 693.738281 693.5 693.976562 689.375 697.160156 640.273438 C 698.019531 627.046875 700.078125 595.074219 701.742188 569.226562 C 703.402344 543.378906 704.882812 522.109375 705.03125 521.960938 C 705.480469 521.515625 709.660156 520.84375 717.3125 519.988281 C 727.160156 518.890625 754.804688 518.449219 766.246094 519.207031 C 774.238281 519.734375 788.292969 521.1875 788.632812 521.519531 C 788.800781 521.683594 792.992188 585.101562 795.417969 624.15625 C 795.707031 628.796875 796.625 643.304688 797.453125 656.390625 C 798.285156 669.480469 799.21875 684.675781 799.527344 690.164062 C 799.835938 695.652344 800.171875 700.402344 800.269531 700.722656 C 800.390625 701.105469 803.445312 701.421875 809.316406 701.65625 C 814.195312 701.847656 818.578125 702.121094 819.0625 702.257812 C 819.816406 702.46875 819.960938 703.339844 820.085938 708.421875 L 820.230469 714.339844 L 834.769531 717.859375 C 842.769531 719.796875 849.429688 721.496094 849.570312 721.636719 C 849.710938 721.777344 803.445312 721.871094 746.753906 721.851562 C 690.066406 721.828125 643.941406 721.703125 644.253906 721.578125 Z M 704.609375 512.527344 C 703.800781 505.367188 699.824219 499.5 694.886719 498.179688 L 692.554688 497.554688 L 692.554688 493.859375 C 692.554688 490.414062 692.632812 490.148438 693.703125 489.996094 C 694.855469 489.835938 694.855469 489.808594 694.996094 478.703125 L 695.132812 467.574219 L 697.679688 467.574219 C 699.082031 467.574219 700.230469 467.761719 700.230469 467.988281 C 700.230469 468.214844 701.898438 468.152344 703.933594 467.84375 C 706.753906 467.421875 707.683594 467.078125 707.8125 466.40625 C 707.945312 465.714844 708.527344 465.527344 710.53125 465.527344 C 712.222656 465.527344 712.96875 465.714844 712.742188 466.078125 C 712.523438 466.433594 712.917969 466.570312 713.863281 466.460938 C 715.214844 466.308594 715.335938 466.113281 715.480469 463.863281 L 715.636719 461.433594 L 712 461.433594 L 712 455.390625 L 717.117188 454.6875 L 717.117188 422.582031 L 714.941406 422.023438 C 709.277344 420.566406 707.90625 419.808594 707.90625 418.144531 C 707.90625 417.800781 715.5625 411.585938 724.917969 404.332031 C 734.277344 397.082031 742.050781 391.054688 742.191406 390.941406 C 742.332031 390.832031 742.5625 388.167969 742.703125 385.023438 L 742.957031 379.308594 L 744.875 378.070312 C 746.675781 376.90625 746.796875 376.671875 746.804688 374.230469 C 746.808594 372.800781 747.035156 371.285156 747.308594 370.863281 C 747.652344 370.328125 747.804688 371.21875 747.8125 373.804688 C 747.816406 376.578125 747.992188 377.511719 748.511719 377.511719 C 748.890625 377.511719 749.8125 378.078125 750.558594 378.769531 C 751.855469 379.96875 751.914062 380.246094 751.914062 385.347656 L 751.914062 390.671875 L 759.714844 396.796875 C 764.007812 400.167969 771.722656 406.128906 776.859375 410.046875 C 784.933594 416.207031 786.195312 417.359375 786.195312 418.5625 C 786.195312 419.808594 785.90625 420.039062 783.511719 420.714844 C 782.03125 421.128906 779.960938 421.621094 778.90625 421.808594 L 776.984375 422.144531 L 776.984375 454.78125 L 778.734375 454.78125 C 781.8125 454.78125 782.101562 455.09375 782.101562 458.417969 L 782.101562 461.433594 L 778.464844 461.433594 L 778.621094 463.859375 C 778.742188 465.765625 778.984375 466.324219 779.75 466.46875 C 780.285156 466.574219 780.902344 466.339844 781.117188 465.957031 C 781.714844 464.886719 786.03125 465.355469 786.335938 466.519531 C 786.519531 467.214844 787.347656 467.5 790.019531 467.773438 C 791.914062 467.964844 793.730469 467.921875 794.050781 467.675781 C 794.375 467.425781 795.617188 467.324219 796.816406 467.453125 L 798.988281 467.679688 L 798.988281 478.570312 C 798.988281 489.027344 799.03125 489.46875 800.011719 489.726562 C 800.921875 489.964844 801.035156 490.421875 801.035156 493.820312 L 801.035156 497.652344 L 799.304688 497.976562 C 794.078125 498.957031 789.617188 505.488281 789.136719 512.859375 C 788.992188 515.046875 788.824219 515.402344 787.964844 515.3125 C 787.414062 515.253906 783.855469 514.851562 780.058594 514.425781 C 766.757812 512.921875 748.507812 512.367188 733.867188 513.023438 C 722.046875 513.554688 709.273438 514.648438 706.050781 515.40625 C 705.0625 515.636719 704.933594 515.382812 704.613281 512.527344 Z M 705.730469 487.777344 L 707.90625 487.441406 L 707.90625 479.203125 L 705.21875 479.523438 C 703.742188 479.703125 702.015625 479.847656 701.378906 479.851562 C 700.277344 479.855469 700.230469 480.035156 700.230469 484.261719 L 700.230469 488.667969 L 701.890625 488.390625 C 702.808594 488.238281 704.535156 487.960938 705.730469 487.777344 Z M 793.871094 484.492188 C 793.871094 482.257812 793.699219 480.328125 793.488281 480.207031 C 793.277344 480.082031 791.550781 479.820312 789.652344 479.621094 L 786.195312 479.261719 L 786.195312 487.46875 L 788.371094 487.75 C 790.449219 488.019531 792.667969 488.335938 793.488281 488.484375 C 793.699219 488.523438 793.871094 486.726562 793.871094 484.492188 Z M 714.742188 483.082031 C 715.078125 479.09375 714.71875 477.851562 713.457031 478.652344 C 712.976562 478.957031 712.769531 480.289062 712.769531 483.054688 C 712.769531 486.355469 712.90625 487.023438 713.589844 487.019531 C 714.242188 487.019531 714.476562 486.214844 714.742188 483.082031 Z M 781.171875 482.925781 C 781.320312 479.300781 781.234375 478.832031 780.441406 478.832031 C 779.664062 478.832031 779.546875 479.371094 779.546875 482.925781 C 779.546875 486.128906 779.707031 487.019531 780.277344 487.019531 C 780.832031 487.019531 781.042969 486.046875 781.171875 482.925781 Z M 707.015625 475.953125 C 707.710938 475.75 707.910156 475.132812 707.910156 473.167969 C 707.910156 470.335938 708.074219 470.410156 703.476562 471.210938 L 700.234375 471.773438 L 700.234375 476.902344 L 703.175781 476.558594 C 704.796875 476.367188 706.523438 476.097656 707.015625 475.953125 Z M 793.878906 474.269531 C 793.878906 471.472656 794.089844 471.613281 788.632812 470.863281 L 786.203125 470.53125 L 786.203125 476.21875 L 788.632812 476.410156 C 794.417969 476.867188 793.878906 477.085938 793.878906 474.269531 Z M 715.074219 472.4375 C 715.074219 470.890625 714.902344 469.625 714.691406 469.628906 C 713.648438 469.652344 713.128906 470.609375 712.953125 472.820312 C 712.777344 475.058594 712.855469 475.25 713.917969 475.25 C 714.976562 475.25 715.074219 475.015625 715.074219 472.4375 Z M 781.167969 472.742188 C 781.03125 470.785156 780.777344 470.171875 780.015625 469.972656 C 779.140625 469.746094 779.039062 470.015625 779.039062 472.484375 C 779.039062 475.011719 779.136719 475.25 780.191406 475.25 C 781.25 475.25 781.328125 475.054688 781.167969 472.742188 Z M 733.367188 452.226562 L 735.03125 452.222656 L 735.03125 440.964844 L 732.292969 440.964844 C 730.785156 440.964844 728.136719 441.113281 726.40625 441.296875 L 723.261719 441.625 L 723.261719 452.886719 L 727.484375 452.558594 C 729.804688 452.378906 732.453125 452.230469 733.367188 452.226562 Z M 770.851562 447.183594 L 770.851562 441.628906 L 766.9375 441.296875 C 764.78125 441.117188 762.132812 440.964844 761.050781 440.964844 L 759.082031 440.964844 L 759.082031 452.175781 L 762.28125 452.355469 C 764.039062 452.457031 766.6875 452.582031 768.164062 452.636719 L 770.851562 452.734375 Z M 756.011719 446.339844 L 756.011719 440.453125 L 737.589844 440.453125 L 737.589844 446 C 737.589844 449.046875 737.742188 451.695312 737.929688 451.882812 C 738.117188 452.070312 742.261719 452.222656 747.140625 452.222656 L 756.011719 452.222656 Z M 730.296875 438.121094 L 735.03125 437.765625 L 735.03125 426.492188 L 729.296875 426.855469 C 726.144531 427.054688 723.371094 427.335938 723.136719 427.484375 C 722.898438 427.628906 722.816406 428.707031 722.953125 429.878906 C 723.085938 431.050781 723.210938 433.589844 723.230469 435.519531 C 723.261719 438.894531 723.304688 439.019531 724.414062 438.753906 C 725.046875 438.601562 727.695312 438.320312 730.296875 438.121094 Z M 770.851562 433.109375 L 770.851562 427.296875 L 767.398438 426.972656 C 765.496094 426.792969 762.847656 426.644531 761.511719 426.640625 L 759.082031 426.640625 L 759.082031 437.816406 L 762.28125 438.113281 C 764.039062 438.273438 766.167969 438.488281 767.011719 438.585938 C 771.214844 439.078125 770.851562 439.597656 770.851562 433.109375 Z M 756.011719 431.914062 L 756.011719 426.101562 L 737.84375 426.382812 L 737.699219 431.464844 C 737.617188 434.257812 737.644531 436.792969 737.765625 437.09375 C 737.902344 437.449219 741.09375 437.65625 746.996094 437.683594 L 756.011719 437.722656 Z M 932.296875 480.246094 C 918.222656 477.765625 890.707031 472.964844 871.144531 469.578125 C 851.585938 466.191406 828.445312 462.175781 819.71875 460.660156 C 810.996094 459.140625 799.710938 457.195312 794.644531 456.332031 C 789.578125 455.46875 784.972656 454.664062 784.410156 454.539062 C 783.425781 454.324219 783.386719 453.898438 783.386719 443.144531 L 783.386719 431.96875 L 822.277344 425.46875 C 843.667969 421.894531 882.910156 415.285156 909.488281 410.785156 C 936.066406 406.285156 957.886719 402.679688 957.976562 402.769531 C 958.066406 402.863281 958.082031 421.34375 958.011719 443.847656 L 957.878906 484.757812 Z M 932.296875 480.246094 " fill-opacity="1" fill-rule="nonzero"/></g><g transform="matrix(1, 0, 0, 1, 264, 735)"><g clip-path="url(#659bc16384)"><g fill="#ffefb3" fill-opacity="1"><g transform="translate(5.082343, 128.615292)"><g><path d="M 120.78125 -52.09375 L 156.640625 -126.015625 L 183.875 -126.015625 L 119.765625 2.203125 L 92.1875 -49.734375 L 66.3125 2.203125 L -1.015625 -126.015625 L 29.09375 -126.015625 L 67.328125 -52.09375 L 79.171875 -74.9375 L 52.4375 -126.015625 L 82.546875 -126.015625 Z M 120.78125 -52.09375 "/></g></g></g><g fill="#ffefb3" fill-opacity="1"><g transform="translate(166.594851, 128.615292)"><g><path d="M 67.65625 -85.421875 L 91.6875 -85.421875 L 91.6875 0 L 67.65625 0 L 67.65625 -6.09375 C 65.851562 -3.613281 62.921875 -1.664062 58.859375 -0.25 C 54.804688 1.15625 50.804688 1.859375 46.859375 1.859375 C 39.078125 1.859375 32.023438 -0.164062 25.703125 -4.21875 C 19.390625 -8.28125 14.34375 -13.664062 10.5625 -20.375 C 6.789062 -27.09375 4.90625 -34.507812 4.90625 -42.625 C 4.90625 -50.851562 6.820312 -58.351562 10.65625 -65.125 C 14.488281 -71.894531 19.585938 -77.28125 25.953125 -81.28125 C 32.328125 -85.28125 39.296875 -87.28125 46.859375 -87.28125 C 50.691406 -87.28125 54.664062 -86.488281 58.78125 -84.90625 C 62.894531 -83.332031 65.851562 -81.53125 67.65625 -79.5 Z M 49.21875 -21.984375 C 54.863281 -21.984375 59.515625 -23.898438 63.171875 -27.734375 C 66.835938 -31.578125 68.671875 -36.539062 68.671875 -42.625 C 68.671875 -48.601562 66.835938 -53.535156 63.171875 -57.421875 C 59.515625 -61.316406 54.863281 -63.265625 49.21875 -63.265625 C 43.695312 -63.265625 38.988281 -61.316406 35.09375 -57.421875 C 31.207031 -53.535156 29.265625 -48.601562 29.265625 -42.625 C 29.265625 -36.539062 31.207031 -31.578125 35.09375 -27.734375 C 38.988281 -23.898438 43.695312 -21.984375 49.21875 -21.984375 Z M 49.21875 -21.984375 "/></g></g></g><g fill="#ffefb3" fill-opacity="1"><g transform="translate(267.563692, 128.615292)"><g><path d="M 58.53125 -63.265625 L 38.234375 -63.265625 L 38.234375 -36.03125 C 38.234375 -31.175781 40.148438 -27.617188 43.984375 -25.359375 C 47.816406 -23.109375 52.492188 -21.984375 58.015625 -21.984375 L 58.015625 1.859375 C 49.554688 1.859375 42.03125 0.308594 35.4375 -2.78125 C 28.84375 -5.882812 23.65625 -10.253906 19.875 -15.890625 C 16.09375 -21.535156 14.203125 -28.023438 14.203125 -35.359375 L 14.203125 -63.265625 L 1.359375 -63.265625 L 1.359375 -85.421875 L 14.203125 -85.421875 L 14.203125 -96.59375 L 38.234375 -114.015625 L 38.234375 -85.421875 L 58.53125 -85.421875 Z M 58.53125 -63.265625 "/></g></g></g><g fill="#ffefb3" fill-opacity="1"><g transform="translate(329.464249, 128.615292)"><g><path d="M 69.515625 -39.25 L 94.21875 -39.25 C 93.65625 -31.6875 91.285156 -24.773438 87.109375 -18.515625 C 82.941406 -12.265625 77.554688 -7.304688 70.953125 -3.640625 C 64.359375 0.0234375 57.113281 1.859375 49.21875 1.859375 C 43.132812 1.859375 37.410156 0.699219 32.046875 -1.609375 C 26.691406 -3.921875 21.984375 -7.132812 17.921875 -11.25 C 13.867188 -15.363281 10.6875 -20.097656 8.375 -25.453125 C 6.0625 -30.816406 4.90625 -36.539062 4.90625 -42.625 C 4.90625 -50.851562 6.90625 -58.351562 10.90625 -65.125 C 14.914062 -71.894531 20.273438 -77.28125 26.984375 -81.28125 C 33.691406 -85.28125 41.101562 -87.28125 49.21875 -87.28125 C 56.21875 -87.28125 62.757812 -85.757812 68.84375 -82.71875 C 74.9375 -79.675781 80.066406 -75.613281 84.234375 -70.53125 L 65.125 -55.65625 C 62.976562 -58.46875 60.523438 -60.4375 57.765625 -61.5625 C 55.003906 -62.695312 52.15625 -63.265625 49.21875 -63.265625 C 43.695312 -63.265625 38.988281 -61.316406 35.09375 -57.421875 C 31.207031 -53.535156 29.265625 -48.601562 29.265625 -42.625 C 29.265625 -36.539062 31.207031 -31.578125 35.09375 -27.734375 C 38.988281 -23.898438 43.695312 -21.984375 49.21875 -21.984375 C 54.519531 -21.984375 59.03125 -23.5625 62.75 -26.71875 C 66.476562 -29.882812 68.734375 -34.0625 69.515625 -39.25 Z M 69.515625 -39.25 "/></g></g></g><g fill="#ffefb3" fill-opacity="1"><g transform="translate(429.249195, 128.615292)"><g><path d="M 94.5625 -42.625 L 94.5625 0 L 70.703125 0 L 70.703125 -42.625 C 70.703125 -49.507812 68.984375 -54.671875 65.546875 -58.109375 C 62.109375 -61.546875 57.910156 -63.265625 52.953125 -63.265625 C 49.453125 -63.265625 46.125 -62.390625 42.96875 -60.640625 C 39.8125 -58.890625 37.273438 -56.460938 35.359375 -53.359375 C 33.441406 -50.265625 32.484375 -46.6875 32.484375 -42.625 L 32.484375 0 L 8.453125 0 L 8.453125 -126.015625 L 32.484375 -126.015625 L 32.484375 -79.328125 C 34.734375 -82.148438 38.082031 -84.179688 42.53125 -85.421875 C 46.988281 -86.660156 51.132812 -87.28125 54.96875 -87.28125 C 62.75 -87.28125 69.628906 -85.28125 75.609375 -81.28125 C 81.585938 -77.28125 86.238281 -71.894531 89.5625 -65.125 C 92.894531 -58.351562 94.5625 -50.851562 94.5625 -42.625 Z M 94.5625 -42.625 "/></g></g></g><g fill="#ffefb3" fill-opacity="1"><g transform="translate(531.909324, 128.615292)"><g><path d="M 58.53125 -63.265625 L 38.234375 -63.265625 L 38.234375 -36.03125 C 38.234375 -31.175781 40.148438 -27.617188 43.984375 -25.359375 C 47.816406 -23.109375 52.492188 -21.984375 58.015625 -21.984375 L 58.015625 1.859375 C 49.554688 1.859375 42.03125 0.308594 35.4375 -2.78125 C 28.84375 -5.882812 23.65625 -10.253906 19.875 -15.890625 C 16.09375 -21.535156 14.203125 -28.023438 14.203125 -35.359375 L 14.203125 -63.265625 L 1.359375 -63.265625 L 1.359375 -85.421875 L 14.203125 -85.421875 L 14.203125 -96.59375 L 38.234375 -114.015625 L 38.234375 -85.421875 L 58.53125 -85.421875 Z M 58.53125 -63.265625 "/></g></g></g><g fill="#ffefb3" fill-opacity="1"><g transform="translate(593.809881, 128.615292)"><g><path d="M 49.21875 -87.28125 C 55.3125 -87.28125 61.09375 -86.125 66.5625 -83.8125 C 72.03125 -81.5 76.820312 -78.285156 80.9375 -74.171875 C 85.050781 -70.054688 88.289062 -65.320312 90.65625 -59.96875 C 93.03125 -54.613281 94.21875 -48.832031 94.21875 -42.625 C 94.21875 -36.539062 93.03125 -30.816406 90.65625 -25.453125 C 88.289062 -20.097656 85.050781 -15.363281 80.9375 -11.25 C 76.820312 -7.132812 72.03125 -3.921875 66.5625 -1.609375 C 61.09375 0.699219 55.3125 1.859375 49.21875 1.859375 C 43.132812 1.859375 37.410156 0.699219 32.046875 -1.609375 C 26.691406 -3.921875 21.984375 -7.132812 17.921875 -11.25 C 13.867188 -15.363281 10.6875 -20.097656 8.375 -25.453125 C 6.0625 -30.816406 4.90625 -36.539062 4.90625 -42.625 C 4.90625 -50.851562 6.90625 -58.351562 10.90625 -65.125 C 14.914062 -71.894531 20.273438 -77.28125 26.984375 -81.28125 C 33.691406 -85.28125 41.101562 -87.28125 49.21875 -87.28125 Z M 49.21875 -21.984375 C 55.082031 -21.984375 59.957031 -23.898438 63.84375 -27.734375 C 67.738281 -31.578125 69.6875 -36.539062 69.6875 -42.625 C 69.6875 -48.601562 67.738281 -53.535156 63.84375 -57.421875 C 59.957031 -61.316406 55.082031 -63.265625 49.21875 -63.265625 C 43.695312 -63.265625 38.988281 -61.316406 35.09375 -57.421875 C 31.207031 -53.535156 29.265625 -48.601562 29.265625 -42.625 C 29.265625 -36.539062 31.207031 -31.578125 35.09375 -27.734375 C 38.988281 -23.898438 43.695312 -21.984375 49.21875 -21.984375 Z M 49.21875 -21.984375 "/></g></g></g><g fill="#ffefb3" fill-opacity="1"><g transform="translate(688.689355, 128.615292)"><g><path d="M 84.921875 -44.484375 L 102.84375 -85.421875 L 126.359375 -85.421875 L 83.90625 2.203125 L 64.625 -38.0625 L 45.328125 2.203125 L -1.015625 -85.421875 L 25.546875 -85.421875 L 46.015625 -44.3125 L 53.796875 -60.890625 L 42.296875 -85.421875 L 65.296875 -85.421875 Z M 84.921875 -44.484375 "/></g></g></g><g fill="#ffefb3" fill-opacity="1"><g transform="translate(809.783368, 128.615292)"><g><path d="M 69.6875 -30.625 L 88.8125 -15.90625 C 85.195312 -10.488281 79.945312 -6.171875 73.0625 -2.953125 C 66.1875 0.253906 58.914062 1.859375 51.25 1.859375 C 44.820312 1.859375 38.816406 0.699219 33.234375 -1.609375 C 27.648438 -3.921875 22.71875 -7.132812 18.4375 -11.25 C 14.15625 -15.363281 10.828125 -20.097656 8.453125 -25.453125 C 6.085938 -30.816406 4.90625 -36.539062 4.90625 -42.625 C 4.90625 -50.851562 6.90625 -58.351562 10.90625 -65.125 C 14.914062 -71.894531 20.273438 -77.28125 26.984375 -81.28125 C 33.691406 -85.28125 41.101562 -87.28125 49.21875 -87.28125 C 56.320312 -87.28125 62.75 -85.867188 68.5 -83.046875 C 74.257812 -80.234375 79.164062 -76.539062 83.21875 -71.96875 C 87.28125 -67.40625 90.160156 -62.472656 91.859375 -57.171875 L 44.15625 -23 C 45.28125 -22.550781 46.429688 -22.269531 47.609375 -22.15625 C 48.796875 -22.039062 50.007812 -21.984375 51.25 -21.984375 C 54.863281 -21.984375 58.359375 -22.660156 61.734375 -24.015625 C 65.117188 -25.367188 67.769531 -27.570312 69.6875 -30.625 Z M 29.265625 -42.625 C 29.265625 -40.375 29.488281 -38.515625 29.9375 -37.046875 L 61.0625 -59.203125 C 59.375 -60.441406 57.539062 -61.425781 55.5625 -62.15625 C 53.59375 -62.894531 51.476562 -63.265625 49.21875 -63.265625 C 43.695312 -63.265625 38.988281 -61.316406 35.09375 -57.421875 C 31.207031 -53.535156 29.265625 -48.601562 29.265625 -42.625 Z M 29.265625 -42.625 "/></g></g></g><g fill="#ffefb3" fill-opacity="1"><g transform="translate(907.369676, 128.615292)"><g><path d="M 57.34375 -86.953125 L 57.34375 -62.078125 C 55.082031 -62.867188 52.546875 -63.265625 49.734375 -63.265625 C 45.109375 -63.265625 41.078125 -61.546875 37.640625 -58.109375 C 34.203125 -54.671875 32.484375 -49.507812 32.484375 -42.625 L 32.484375 0 L 8.453125 0 L 8.453125 -85.421875 L 32.484375 -85.421875 L 32.484375 -79.5 C 35.078125 -82.320312 38.0625 -84.320312 41.4375 -85.5 C 44.820312 -86.6875 48.148438 -87.28125 51.421875 -87.28125 C 52.441406 -87.28125 53.398438 -87.28125 54.296875 -87.28125 C 55.203125 -87.28125 56.21875 -87.171875 57.34375 -86.953125 Z M 57.34375 -86.953125 "/></g></g></g></g></g><g transform="matrix(1, 0, 0, 1, 380, 893)"><g clip-path="url(#c071b56ebc)"><g fill="#c4b789" fill-opacity="1"><g transform="translate(1.014131, 26.598857)"><g><path d="M 6.65625 -17.015625 C 8.539062 -17.015625 10.023438 -16.679688 11.109375 -16.015625 C 12.191406 -15.359375 12.734375 -14.179688 12.734375 -12.484375 C 12.734375 -10.765625 12.164062 -9.570312 11.03125 -8.90625 C 9.90625 -8.25 8.398438 -7.921875 6.515625 -7.921875 L 3.765625 -7.921875 L 3.765625 0 L 2.0625 0 L 2.0625 -17.015625 Z M 6.59375 -9.578125 C 7.507812 -9.578125 8.28125 -9.660156 8.90625 -9.828125 C 9.539062 -9.992188 10.039062 -10.289062 10.40625 -10.71875 C 10.769531 -11.144531 10.953125 -11.734375 10.953125 -12.484375 C 10.953125 -13.566406 10.582031 -14.316406 9.84375 -14.734375 C 9.113281 -15.148438 8.09375 -15.359375 6.78125 -15.359375 L 3.765625 -15.359375 L 3.765625 -9.578125 Z M 6.59375 -9.578125 "/></g></g></g><g fill="#c4b789" fill-opacity="1"><g transform="translate(20.685434, 26.598857)"><g><path d="M 7.65625 0.3125 C 6.457031 0.3125 5.367188 0.0078125 4.390625 -0.59375 C 3.410156 -1.195312 2.632812 -2.003906 2.0625 -3.015625 C 1.488281 -4.035156 1.203125 -5.140625 1.203125 -6.328125 C 1.203125 -7.515625 1.488281 -8.609375 2.0625 -9.609375 C 2.644531 -10.609375 3.429688 -11.410156 4.421875 -12.015625 C 5.421875 -12.617188 6.515625 -12.921875 7.703125 -12.921875 C 8.734375 -12.921875 9.671875 -12.695312 10.515625 -12.25 C 11.367188 -11.8125 12.109375 -11.15625 12.734375 -10.28125 L 12.734375 -12.59375 L 14.3125 -12.59375 L 14.3125 0 L 12.734375 0 L 12.734375 -2.15625 C 12.046875 -1.332031 11.273438 -0.710938 10.421875 -0.296875 C 9.578125 0.105469 8.65625 0.3125 7.65625 0.3125 Z M 7.828125 -1.15625 C 8.691406 -1.15625 9.507812 -1.363281 10.28125 -1.78125 C 11.0625 -2.207031 11.679688 -2.800781 12.140625 -3.5625 C 12.609375 -4.332031 12.84375 -5.222656 12.84375 -6.234375 C 12.84375 -7.203125 12.617188 -8.070312 12.171875 -8.84375 C 11.734375 -9.613281 11.132812 -10.222656 10.375 -10.671875 C 9.625 -11.128906 8.78125 -11.359375 7.84375 -11.359375 C 6.914062 -11.359375 6.066406 -11.125 5.296875 -10.65625 C 4.523438 -10.1875 3.925781 -9.5625 3.5 -8.78125 C 3.082031 -8.007812 2.875 -7.175781 2.875 -6.28125 C 2.875 -5.382812 3.085938 -4.539062 3.515625 -3.75 C 3.953125 -2.96875 4.550781 -2.335938 5.3125 -1.859375 C 6.070312 -1.390625 6.910156 -1.15625 7.828125 -1.15625 Z M 7.828125 -1.15625 "/></g></g></g><g fill="#c4b789" fill-opacity="1"><g transform="translate(43.579753, 26.598857)"><g><path d="M 4.53125 0.328125 C 3.8125 0.328125 3.117188 0.167969 2.453125 -0.140625 C 1.796875 -0.453125 1.25 -0.894531 0.8125 -1.46875 L 1.828125 -2.625 C 2.660156 -1.695312 3.535156 -1.234375 4.453125 -1.234375 C 4.867188 -1.234375 5.253906 -1.320312 5.609375 -1.5 C 5.960938 -1.6875 6.242188 -1.941406 6.453125 -2.265625 C 6.671875 -2.585938 6.78125 -2.9375 6.78125 -3.3125 C 6.78125 -3.738281 6.671875 -4.101562 6.453125 -4.40625 C 6.242188 -4.707031 5.898438 -4.984375 5.421875 -5.234375 C 4.429688 -5.773438 3.675781 -6.21875 3.15625 -6.5625 C 2.632812 -6.914062 2.207031 -7.335938 1.875 -7.828125 C 1.539062 -8.316406 1.375 -8.898438 1.375 -9.578125 C 1.375 -10.222656 1.523438 -10.796875 1.828125 -11.296875 C 2.140625 -11.804688 2.5625 -12.203125 3.09375 -12.484375 C 3.625 -12.773438 4.203125 -12.921875 4.828125 -12.921875 C 5.484375 -12.921875 6.085938 -12.773438 6.640625 -12.484375 C 7.191406 -12.203125 7.75 -11.78125 8.3125 -11.21875 L 7.28125 -10.140625 C 6.863281 -10.535156 6.453125 -10.835938 6.046875 -11.046875 C 5.648438 -11.253906 5.210938 -11.359375 4.734375 -11.359375 C 4.390625 -11.359375 4.070312 -11.28125 3.78125 -11.125 C 3.5 -10.976562 3.269531 -10.773438 3.09375 -10.515625 C 2.925781 -10.265625 2.84375 -9.984375 2.84375 -9.671875 C 2.84375 -9.242188 2.96875 -8.867188 3.21875 -8.546875 C 3.476562 -8.234375 3.867188 -7.9375 4.390625 -7.65625 C 5.398438 -7.101562 6.160156 -6.648438 6.671875 -6.296875 C 7.179688 -5.941406 7.582031 -5.535156 7.875 -5.078125 C 8.164062 -4.617188 8.3125 -4.054688 8.3125 -3.390625 C 8.3125 -2.722656 8.15625 -2.101562 7.84375 -1.53125 C 7.53125 -0.96875 7.082031 -0.515625 6.5 -0.171875 C 5.925781 0.160156 5.269531 0.328125 4.53125 0.328125 Z M 4.53125 0.328125 "/></g></g></g><g fill="#c4b789" fill-opacity="1"><g transform="translate(59.459437, 26.598857)"><g><path d="M 4.53125 0.328125 C 3.8125 0.328125 3.117188 0.167969 2.453125 -0.140625 C 1.796875 -0.453125 1.25 -0.894531 0.8125 -1.46875 L 1.828125 -2.625 C 2.660156 -1.695312 3.535156 -1.234375 4.453125 -1.234375 C 4.867188 -1.234375 5.253906 -1.320312 5.609375 -1.5 C 5.960938 -1.6875 6.242188 -1.941406 6.453125 -2.265625 C 6.671875 -2.585938 6.78125 -2.9375 6.78125 -3.3125 C 6.78125 -3.738281 6.671875 -4.101562 6.453125 -4.40625 C 6.242188 -4.707031 5.898438 -4.984375 5.421875 -5.234375 C 4.429688 -5.773438 3.675781 -6.21875 3.15625 -6.5625 C 2.632812 -6.914062 2.207031 -7.335938 1.875 -7.828125 C 1.539062 -8.316406 1.375 -8.898438 1.375 -9.578125 C 1.375 -10.222656 1.523438 -10.796875 1.828125 -11.296875 C 2.140625 -11.804688 2.5625 -12.203125 3.09375 -12.484375 C 3.625 -12.773438 4.203125 -12.921875 4.828125 -12.921875 C 5.484375 -12.921875 6.085938 -12.773438 6.640625 -12.484375 C 7.191406 -12.203125 7.75 -11.78125 8.3125 -11.21875 L 7.28125 -10.140625 C 6.863281 -10.535156 6.453125 -10.835938 6.046875 -11.046875 C 5.648438 -11.253906 5.210938 -11.359375 4.734375 -11.359375 C 4.390625 -11.359375 4.070312 -11.28125 3.78125 -11.125 C 3.5 -10.976562 3.269531 -10.773438 3.09375 -10.515625 C 2.925781 -10.265625 2.84375 -9.984375 2.84375 -9.671875 C 2.84375 -9.242188 2.96875 -8.867188 3.21875 -8.546875 C 3.476562 -8.234375 3.867188 -7.9375 4.390625 -7.65625 C 5.398438 -7.101562 6.160156 -6.648438 6.671875 -6.296875 C 7.179688 -5.941406 7.582031 -5.535156 7.875 -5.078125 C 8.164062 -4.617188 8.3125 -4.054688 8.3125 -3.390625 C 8.3125 -2.722656 8.15625 -2.101562 7.84375 -1.53125 C 7.53125 -0.96875 7.082031 -0.515625 6.5 -0.171875 C 5.925781 0.160156 5.269531 0.328125 4.53125 0.328125 Z M 4.53125 0.328125 "/></g></g></g><g fill="#c4b789" fill-opacity="1"><g transform="translate(75.33912, 26.598857)"><g><path d="M 2.609375 -15.09375 C 2.242188 -15.09375 1.929688 -15.226562 1.671875 -15.5 C 1.410156 -15.769531 1.28125 -16.085938 1.28125 -16.453125 C 1.28125 -16.828125 1.410156 -17.140625 1.671875 -17.390625 C 1.929688 -17.648438 2.242188 -17.78125 2.609375 -17.78125 C 2.972656 -17.78125 3.285156 -17.648438 3.546875 -17.390625 C 3.816406 -17.128906 3.953125 -16.816406 3.953125 -16.453125 C 3.953125 -16.085938 3.816406 -15.769531 3.546875 -15.5 C 3.285156 -15.226562 2.972656 -15.09375 2.609375 -15.09375 Z M 1.828125 -12.59375 L 3.4375 -12.59375 L 3.4375 0 L 1.828125 0 Z M 1.828125 -12.59375 "/></g></g></g><g fill="#c4b789" fill-opacity="1"><g transform="translate(87.261223, 26.598857)"><g><path d="M 10.734375 -12.59375 L 12.46875 -12.59375 L 6.84375 0 L 6.28125 0 L 0.609375 -12.59375 L 2.34375 -12.59375 L 6.5625 -3.15625 Z M 10.734375 -12.59375 "/></g></g></g><g fill="#c4b789" fill-opacity="1"><g transform="translate(106.12672, 26.598857)"><g><path d="M 7.78125 0.3125 C 6.414062 0.3125 5.238281 0.0117188 4.25 -0.578125 C 3.257812 -1.171875 2.503906 -1.96875 1.984375 -2.96875 C 1.460938 -3.976562 1.203125 -5.070312 1.203125 -6.25 C 1.203125 -7.40625 1.472656 -8.492188 2.015625 -9.515625 C 2.554688 -10.535156 3.316406 -11.359375 4.296875 -11.984375 C 5.285156 -12.609375 6.414062 -12.921875 7.6875 -12.921875 C 8.894531 -12.921875 9.992188 -12.632812 10.984375 -12.0625 C 11.984375 -11.5 12.769531 -10.707031 13.34375 -9.6875 C 13.914062 -8.675781 14.203125 -7.539062 14.203125 -6.28125 L 14.203125 -6.15625 L 2.875 -6.15625 C 2.90625 -5.195312 3.128906 -4.34375 3.546875 -3.59375 C 3.960938 -2.851562 4.535156 -2.273438 5.265625 -1.859375 C 5.992188 -1.453125 6.832031 -1.25 7.78125 -1.25 C 8.894531 -1.25 9.804688 -1.507812 10.515625 -2.03125 C 11.234375 -2.5625 11.867188 -3.273438 12.421875 -4.171875 L 13.765625 -3.453125 C 13.148438 -2.273438 12.332031 -1.351562 11.3125 -0.6875 C 10.300781 -0.0195312 9.125 0.3125 7.78125 0.3125 Z M 12.421875 -7.578125 C 12.109375 -8.828125 11.523438 -9.769531 10.671875 -10.40625 C 9.828125 -11.039062 8.835938 -11.359375 7.703125 -11.359375 C 6.546875 -11.359375 5.566406 -11.046875 4.765625 -10.421875 C 3.972656 -9.796875 3.394531 -8.847656 3.03125 -7.578125 Z M 12.421875 -7.578125 "/></g></g></g><g fill="#c4b789" fill-opacity="1"><g transform="translate(128.215308, 26.598857)"><g/></g></g><g fill="#c4b789" fill-opacity="1"><g transform="translate(141.464496, 26.598857)"><g><path d="M 7.65625 0.3125 C 6.457031 0.3125 5.367188 0.0078125 4.390625 -0.59375 C 3.410156 -1.195312 2.632812 -2.003906 2.0625 -3.015625 C 1.488281 -4.035156 1.203125 -5.140625 1.203125 -6.328125 C 1.203125 -7.515625 1.488281 -8.609375 2.0625 -9.609375 C 2.644531 -10.609375 3.429688 -11.410156 4.421875 -12.015625 C 5.421875 -12.617188 6.515625 -12.921875 7.703125 -12.921875 C 8.734375 -12.921875 9.671875 -12.695312 10.515625 -12.25 C 11.367188 -11.8125 12.109375 -11.15625 12.734375 -10.28125 L 12.734375 -12.59375 L 14.3125 -12.59375 L 14.3125 0 L 12.734375 0 L 12.734375 -2.15625 C 12.046875 -1.332031 11.273438 -0.710938 10.421875 -0.296875 C 9.578125 0.105469 8.65625 0.3125 7.65625 0.3125 Z M 7.828125 -1.15625 C 8.691406 -1.15625 9.507812 -1.363281 10.28125 -1.78125 C 11.0625 -2.207031 11.679688 -2.800781 12.140625 -3.5625 C 12.609375 -4.332031 12.84375 -5.222656 12.84375 -6.234375 C 12.84375 -7.203125 12.617188 -8.070312 12.171875 -8.84375 C 11.734375 -9.613281 11.132812 -10.222656 10.375 -10.671875 C 9.625 -11.128906 8.78125 -11.359375 7.84375 -11.359375 C 6.914062 -11.359375 6.066406 -11.125 5.296875 -10.65625 C 4.523438 -10.1875 3.925781 -9.5625 3.5 -8.78125 C 3.082031 -8.007812 2.875 -7.175781 2.875 -6.28125 C 2.875 -5.382812 3.085938 -4.539062 3.515625 -3.75 C 3.953125 -2.96875 4.550781 -2.335938 5.3125 -1.859375 C 6.070312 -1.390625 6.910156 -1.15625 7.828125 -1.15625 Z M 7.828125 -1.15625 "/></g></g></g><g fill="#c4b789" fill-opacity="1"><g transform="translate(164.358832, 26.598857)"><g><path d="M 7.828125 4.90625 C 6.648438 4.90625 5.644531 4.75 4.8125 4.4375 C 3.976562 4.132812 3.285156 3.695312 2.734375 3.125 C 2.191406 2.5625 1.722656 1.851562 1.328125 1 L 3.078125 1 C 3.554688 1.832031 4.171875 2.445312 4.921875 2.84375 C 5.679688 3.238281 6.617188 3.4375 7.734375 3.4375 C 9.304688 3.4375 10.519531 3.035156 11.375 2.234375 C 12.226562 1.441406 12.65625 0.261719 12.65625 -1.296875 L 12.65625 -2.390625 C 12.039062 -1.597656 11.296875 -1 10.421875 -0.59375 C 9.546875 -0.195312 8.609375 0 7.609375 0 C 6.453125 0 5.378906 -0.269531 4.390625 -0.8125 C 3.410156 -1.363281 2.625 -2.125 2.03125 -3.09375 C 1.445312 -4.0625 1.15625 -5.15625 1.15625 -6.375 C 1.15625 -7.59375 1.457031 -8.695312 2.0625 -9.6875 C 2.664062 -10.6875 3.460938 -11.472656 4.453125 -12.046875 C 5.453125 -12.628906 6.503906 -12.921875 7.609375 -12.921875 C 8.671875 -12.921875 9.597656 -12.707031 10.390625 -12.28125 C 11.191406 -11.863281 11.945312 -11.238281 12.65625 -10.40625 L 12.65625 -12.59375 L 14.296875 -12.59375 L 14.296875 -1.734375 C 14.296875 0.386719 13.753906 2.023438 12.671875 3.171875 C 11.597656 4.328125 9.984375 4.90625 7.828125 4.90625 Z M 7.921875 -1.5625 C 8.835938 -1.5625 9.65625 -1.757812 10.375 -2.15625 C 11.101562 -2.5625 11.675781 -3.128906 12.09375 -3.859375 C 12.519531 -4.585938 12.734375 -5.4375 12.734375 -6.40625 C 12.734375 -7.382812 12.507812 -8.25 12.0625 -9 C 11.625 -9.75 11.03125 -10.328125 10.28125 -10.734375 C 9.539062 -11.148438 8.738281 -11.359375 7.875 -11.359375 C 6.9375 -11.359375 6.082031 -11.132812 5.3125 -10.6875 C 4.550781 -10.25 3.945312 -9.640625 3.5 -8.859375 C 3.050781 -8.085938 2.828125 -7.226562 2.828125 -6.28125 C 2.828125 -5.425781 3.019531 -4.640625 3.40625 -3.921875 C 3.800781 -3.203125 4.382812 -2.628906 5.15625 -2.203125 C 5.925781 -1.773438 6.847656 -1.5625 7.921875 -1.5625 Z M 7.921875 -1.5625 "/></g></g></g><g fill="#c4b789" fill-opacity="1"><g transform="translate(186.992465, 26.598857)"><g><path d="M 7.78125 0.3125 C 6.414062 0.3125 5.238281 0.0117188 4.25 -0.578125 C 3.257812 -1.171875 2.503906 -1.96875 1.984375 -2.96875 C 1.460938 -3.976562 1.203125 -5.070312 1.203125 -6.25 C 1.203125 -7.40625 1.472656 -8.492188 2.015625 -9.515625 C 2.554688 -10.535156 3.316406 -11.359375 4.296875 -11.984375 C 5.285156 -12.609375 6.414062 -12.921875 7.6875 -12.921875 C 8.894531 -12.921875 9.992188 -12.632812 10.984375 -12.0625 C 11.984375 -11.5 12.769531 -10.707031 13.34375 -9.6875 C 13.914062 -8.675781 14.203125 -7.539062 14.203125 -6.28125 L 14.203125 -6.15625 L 2.875 -6.15625 C 2.90625 -5.195312 3.128906 -4.34375 3.546875 -3.59375 C 3.960938 -2.851562 4.535156 -2.273438 5.265625 -1.859375 C 5.992188 -1.453125 6.832031 -1.25 7.78125 -1.25 C 8.894531 -1.25 9.804688 -1.507812 10.515625 -2.03125 C 11.234375 -2.5625 11.867188 -3.273438 12.421875 -4.171875 L 13.765625 -3.453125 C 13.148438 -2.273438 12.332031 -1.351562 11.3125 -0.6875 C 10.300781 -0.0195312 9.125 0.3125 7.78125 0.3125 Z M 12.421875 -7.578125 C 12.109375 -8.828125 11.523438 -9.769531 10.671875 -10.40625 C 9.828125 -11.039062 8.835938 -11.359375 7.703125 -11.359375 C 6.546875 -11.359375 5.566406 -11.046875 4.765625 -10.421875 C 3.972656 -9.796875 3.394531 -8.847656 3.03125 -7.578125 Z M 12.421875 -7.578125 "/></g></g></g><g fill="#c4b789" fill-opacity="1"><g transform="translate(209.081061, 26.598857)"><g><path d="M 3.515625 -12.59375 L 3.515625 -10.328125 C 4.816406 -12.054688 6.382812 -12.921875 8.21875 -12.921875 C 9.15625 -12.921875 9.972656 -12.703125 10.671875 -12.265625 C 11.378906 -11.828125 11.925781 -11.171875 12.3125 -10.296875 C 12.695312 -9.421875 12.890625 -8.34375 12.890625 -7.0625 L 12.890625 0 L 11.28125 0 L 11.28125 -6.84375 C 11.28125 -8.382812 11.015625 -9.535156 10.484375 -10.296875 C 9.953125 -11.066406 9.097656 -11.453125 7.921875 -11.453125 C 7.140625 -11.453125 6.410156 -11.238281 5.734375 -10.8125 C 5.066406 -10.382812 4.53125 -9.765625 4.125 -8.953125 C 3.71875 -8.140625 3.515625 -7.171875 3.515625 -6.046875 L 3.515625 0 L 1.890625 0 L 1.890625 -12.59375 Z M 3.515625 -12.59375 "/></g></g></g><g fill="#c4b789" fill-opacity="1"><g transform="translate(230.079483, 26.598857)"><g><path d="M 3.25 -11.171875 L 1.015625 -11.171875 L 1.015625 -12.59375 L 3.25 -12.59375 L 3.25 -17.28125 L 4.859375 -17.28125 L 4.859375 -12.59375 L 7.4375 -12.59375 L 7.4375 -11.171875 L 4.859375 -11.171875 L 4.859375 0 L 3.25 0 Z M 3.25 -11.171875 "/></g></g></g><g fill="#c4b789" fill-opacity="1"><g transform="translate(244.797957, 26.598857)"><g><path d="M 7.140625 -7.109375 L 7.140625 -5.6875 L 0.765625 -5.6875 L 0.765625 -7.109375 Z M 7.140625 -7.109375 "/></g></g></g><g fill="#c4b789" fill-opacity="1"><g transform="translate(259.350564, 26.598857)"><g><path d="M 4.53125 0.328125 C 3.8125 0.328125 3.117188 0.167969 2.453125 -0.140625 C 1.796875 -0.453125 1.25 -0.894531 0.8125 -1.46875 L 1.828125 -2.625 C 2.660156 -1.695312 3.535156 -1.234375 4.453125 -1.234375 C 4.867188 -1.234375 5.253906 -1.320312 5.609375 -1.5 C 5.960938 -1.6875 6.242188 -1.941406 6.453125 -2.265625 C 6.671875 -2.585938 6.78125 -2.9375 6.78125 -3.3125 C 6.78125 -3.738281 6.671875 -4.101562 6.453125 -4.40625 C 6.242188 -4.707031 5.898438 -4.984375 5.421875 -5.234375 C 4.429688 -5.773438 3.675781 -6.21875 3.15625 -6.5625 C 2.632812 -6.914062 2.207031 -7.335938 1.875 -7.828125 C 1.539062 -8.316406 1.375 -8.898438 1.375 -9.578125 C 1.375 -10.222656 1.523438 -10.796875 1.828125 -11.296875 C 2.140625 -11.804688 2.5625 -12.203125 3.09375 -12.484375 C 3.625 -12.773438 4.203125 -12.921875 4.828125 -12.921875 C 5.484375 -12.921875 6.085938 -12.773438 6.640625 -12.484375 C 7.191406 -12.203125 7.75 -11.78125 8.3125 -11.21875 L 7.28125 -10.140625 C 6.863281 -10.535156 6.453125 -10.835938 6.046875 -11.046875 C 5.648438 -11.253906 5.210938 -11.359375 4.734375 -11.359375 C 4.390625 -11.359375 4.070312 -11.28125 3.78125 -11.125 C 3.5 -10.976562 3.269531 -10.773438 3.09375 -10.515625 C 2.925781 -10.265625 2.84375 -9.984375 2.84375 -9.671875 C 2.84375 -9.242188 2.96875 -8.867188 3.21875 -8.546875 C 3.476562 -8.234375 3.867188 -7.9375 4.390625 -7.65625 C 5.398438 -7.101562 6.160156 -6.648438 6.671875 -6.296875 C 7.179688 -5.941406 7.582031 -5.535156 7.875 -5.078125 C 8.164062 -4.617188 8.3125 -4.054688 8.3125 -3.390625 C 8.3125 -2.722656 8.15625 -2.101562 7.84375 -1.53125 C 7.53125 -0.96875 7.082031 -0.515625 6.5 -0.171875 C 5.925781 0.160156 5.269531 0.328125 4.53125 0.328125 Z M 4.53125 0.328125 "/></g></g></g><g fill="#c4b789" fill-opacity="1"><g transform="translate(275.230247, 26.598857)"><g><path d="M 7.140625 0.3125 C 5.316406 0.3125 3.9375 -0.222656 3 -1.296875 C 2.0625 -2.378906 1.59375 -3.96875 1.59375 -6.0625 L 1.59375 -12.59375 L 3.296875 -12.59375 L 3.296875 -5.40625 C 3.296875 -4.03125 3.632812 -2.992188 4.3125 -2.296875 C 4.988281 -1.597656 5.929688 -1.25 7.140625 -1.25 C 7.972656 -1.25 8.671875 -1.421875 9.234375 -1.765625 C 9.804688 -2.109375 10.234375 -2.582031 10.515625 -3.1875 C 10.804688 -3.789062 10.953125 -4.488281 10.953125 -5.28125 L 10.953125 -12.59375 L 12.65625 -12.59375 L 12.65625 -6.0625 C 12.65625 -3.945312 12.1875 -2.351562 11.25 -1.28125 C 10.320312 -0.21875 8.953125 0.3125 7.140625 0.3125 Z M 7.140625 0.3125 "/></g></g></g><g fill="#c4b789" fill-opacity="1"><g transform="translate(296.323502, 26.598857)"><g><path d="M 3.515625 -12.59375 L 3.515625 -10.28125 C 4.128906 -11.15625 4.863281 -11.8125 5.71875 -12.25 C 6.570312 -12.695312 7.503906 -12.921875 8.515625 -12.921875 C 9.710938 -12.921875 10.804688 -12.617188 11.796875 -12.015625 C 12.796875 -11.410156 13.582031 -10.609375 14.15625 -9.609375 C 14.738281 -8.609375 15.03125 -7.515625 15.03125 -6.328125 C 15.03125 -5.140625 14.742188 -4.035156 14.171875 -3.015625 C 13.609375 -2.003906 12.832031 -1.195312 11.84375 -0.59375 C 10.851562 0.0078125 9.757812 0.3125 8.5625 0.3125 C 6.550781 0.3125 4.867188 -0.507812 3.515625 -2.15625 L 3.515625 4.59375 L 1.890625 4.59375 L 1.890625 -12.59375 Z M 8.390625 -1.15625 C 9.304688 -1.15625 10.144531 -1.390625 10.90625 -1.859375 C 11.664062 -2.328125 12.265625 -2.957031 12.703125 -3.75 C 13.148438 -4.539062 13.375 -5.382812 13.375 -6.28125 C 13.375 -7.175781 13.160156 -8.007812 12.734375 -8.78125 C 12.304688 -9.5625 11.707031 -10.1875 10.9375 -10.65625 C 10.175781 -11.125 9.328125 -11.359375 8.390625 -11.359375 C 7.460938 -11.359375 6.617188 -11.128906 5.859375 -10.671875 C 5.097656 -10.222656 4.492188 -9.613281 4.046875 -8.84375 C 3.609375 -8.070312 3.390625 -7.203125 3.390625 -6.234375 C 3.390625 -5.222656 3.617188 -4.332031 4.078125 -3.5625 C 4.546875 -2.800781 5.164062 -2.207031 5.9375 -1.78125 C 6.707031 -1.363281 7.523438 -1.15625 8.390625 -1.15625 Z M 8.390625 -1.15625 "/></g></g></g><g fill="#c4b789" fill-opacity="1"><g transform="translate(319.217804, 26.598857)"><g><path d="M 7.78125 0.3125 C 6.414062 0.3125 5.238281 0.0117188 4.25 -0.578125 C 3.257812 -1.171875 2.503906 -1.96875 1.984375 -2.96875 C 1.460938 -3.976562 1.203125 -5.070312 1.203125 -6.25 C 1.203125 -7.40625 1.472656 -8.492188 2.015625 -9.515625 C 2.554688 -10.535156 3.316406 -11.359375 4.296875 -11.984375 C 5.285156 -12.609375 6.414062 -12.921875 7.6875 -12.921875 C 8.894531 -12.921875 9.992188 -12.632812 10.984375 -12.0625 C 11.984375 -11.5 12.769531 -10.707031 13.34375 -9.6875 C 13.914062 -8.675781 14.203125 -7.539062 14.203125 -6.28125 L 14.203125 -6.15625 L 2.875 -6.15625 C 2.90625 -5.195312 3.128906 -4.34375 3.546875 -3.59375 C 3.960938 -2.851562 4.535156 -2.273438 5.265625 -1.859375 C 5.992188 -1.453125 6.832031 -1.25 7.78125 -1.25 C 8.894531 -1.25 9.804688 -1.507812 10.515625 -2.03125 C 11.234375 -2.5625 11.867188 -3.273438 12.421875 -4.171875 L 13.765625 -3.453125 C 13.148438 -2.273438 12.332031 -1.351562 11.3125 -0.6875 C 10.300781 -0.0195312 9.125 0.3125 7.78125 0.3125 Z M 12.421875 -7.578125 C 12.109375 -8.828125 11.523438 -9.769531 10.671875 -10.40625 C 9.828125 -11.039062 8.835938 -11.359375 7.703125 -11.359375 C 6.546875 -11.359375 5.566406 -11.046875 4.765625 -10.421875 C 3.972656 -9.796875 3.394531 -8.847656 3.03125 -7.578125 Z M 12.421875 -7.578125 "/></g></g></g><g fill="#c4b789" fill-opacity="1"><g transform="translate(341.3064, 26.598857)"><g><path d="M 3.515625 -12.59375 L 3.515625 -10.765625 C 4.003906 -11.472656 4.507812 -12.007812 5.03125 -12.375 C 5.5625 -12.738281 6.132812 -12.921875 6.75 -12.921875 C 7.050781 -12.921875 7.316406 -12.882812 7.546875 -12.8125 C 7.773438 -12.738281 7.992188 -12.628906 8.203125 -12.484375 L 7.34375 -11.109375 C 7.03125 -11.273438 6.75 -11.359375 6.5 -11.359375 C 5.925781 -11.359375 5.414062 -11.144531 4.96875 -10.71875 C 4.519531 -10.300781 4.164062 -9.710938 3.90625 -8.953125 C 3.644531 -8.203125 3.515625 -7.335938 3.515625 -6.359375 L 3.515625 0 L 1.890625 0 L 1.890625 -12.59375 Z M 3.515625 -12.59375 "/></g></g></g><g fill="#c4b789" fill-opacity="1"><g transform="translate(356.001208, 26.598857)"><g><path d="M 10.734375 -12.59375 L 12.46875 -12.59375 L 6.84375 0 L 6.28125 0 L 0.609375 -12.59375 L 2.34375 -12.59375 L 6.5625 -3.15625 Z M 10.734375 -12.59375 "/></g></g></g><g fill="#c4b789" fill-opacity="1"><g transform="translate(375.814787, 26.598857)"><g><path d="M 2.609375 -15.09375 C 2.242188 -15.09375 1.929688 -15.226562 1.671875 -15.5 C 1.410156 -15.769531 1.28125 -16.085938 1.28125 -16.453125 C 1.28125 -16.828125 1.410156 -17.140625 1.671875 -17.390625 C 1.929688 -17.648438 2.242188 -17.78125 2.609375 -17.78125 C 2.972656 -17.78125 3.285156 -17.648438 3.546875 -17.390625 C 3.816406 -17.128906 3.953125 -16.816406 3.953125 -16.453125 C 3.953125 -16.085938 3.816406 -15.769531 3.546875 -15.5 C 3.285156 -15.226562 2.972656 -15.09375 2.609375 -15.09375 Z M 1.828125 -12.59375 L 3.4375 -12.59375 L 3.4375 0 L 1.828125 0 Z M 1.828125 -12.59375 "/></g></g></g><g fill="#c4b789" fill-opacity="1"><g transform="translate(387.736907, 26.598857)"><g><path d="M 4.53125 0.328125 C 3.8125 0.328125 3.117188 0.167969 2.453125 -0.140625 C 1.796875 -0.453125 1.25 -0.894531 0.8125 -1.46875 L 1.828125 -2.625 C 2.660156 -1.695312 3.535156 -1.234375 4.453125 -1.234375 C 4.867188 -1.234375 5.253906 -1.320312 5.609375 -1.5 C 5.960938 -1.6875 6.242188 -1.941406 6.453125 -2.265625 C 6.671875 -2.585938 6.78125 -2.9375 6.78125 -3.3125 C 6.78125 -3.738281 6.671875 -4.101562 6.453125 -4.40625 C 6.242188 -4.707031 5.898438 -4.984375 5.421875 -5.234375 C 4.429688 -5.773438 3.675781 -6.21875 3.15625 -6.5625 C 2.632812 -6.914062 2.207031 -7.335938 1.875 -7.828125 C 1.539062 -8.316406 1.375 -8.898438 1.375 -9.578125 C 1.375 -10.222656 1.523438 -10.796875 1.828125 -11.296875 C 2.140625 -11.804688 2.5625 -12.203125 3.09375 -12.484375 C 3.625 -12.773438 4.203125 -12.921875 4.828125 -12.921875 C 5.484375 -12.921875 6.085938 -12.773438 6.640625 -12.484375 C 7.191406 -12.203125 7.75 -11.78125 8.3125 -11.21875 L 7.28125 -10.140625 C 6.863281 -10.535156 6.453125 -10.835938 6.046875 -11.046875 C 5.648438 -11.253906 5.210938 -11.359375 4.734375 -11.359375 C 4.390625 -11.359375 4.070312 -11.28125 3.78125 -11.125 C 3.5 -10.976562 3.269531 -10.773438 3.09375 -10.515625 C 2.925781 -10.265625 2.84375 -9.984375 2.84375 -9.671875 C 2.84375 -9.242188 2.96875 -8.867188 3.21875 -8.546875 C 3.476562 -8.234375 3.867188 -7.9375 4.390625 -7.65625 C 5.398438 -7.101562 6.160156 -6.648438 6.671875 -6.296875 C 7.179688 -5.941406 7.582031 -5.535156 7.875 -5.078125 C 8.164062 -4.617188 8.3125 -4.054688 8.3125 -3.390625 C 8.3125 -2.722656 8.15625 -2.101562 7.84375 -1.53125 C 7.53125 -0.96875 7.082031 -0.515625 6.5 -0.171875 C 5.925781 0.160156 5.269531 0.328125 4.53125 0.328125 Z M 4.53125 0.328125 "/></g></g></g><g fill="#c4b789" fill-opacity="1"><g transform="translate(403.61659, 26.598857)"><g><path d="M 2.609375 -15.09375 C 2.242188 -15.09375 1.929688 -15.226562 1.671875 -15.5 C 1.410156 -15.769531 1.28125 -16.085938 1.28125 -16.453125 C 1.28125 -16.828125 1.410156 -17.140625 1.671875 -17.390625 C 1.929688 -17.648438 2.242188 -17.78125 2.609375 -17.78125 C 2.972656 -17.78125 3.285156 -17.648438 3.546875 -17.390625 C 3.816406 -17.128906 3.953125 -16.816406 3.953125 -16.453125 C 3.953125 -16.085938 3.816406 -15.769531 3.546875 -15.5 C 3.285156 -15.226562 2.972656 -15.09375 2.609375 -15.09375 Z M 1.828125 -12.59375 L 3.4375 -12.59375 L 3.4375 0 L 1.828125 0 Z M 1.828125 -12.59375 "/></g></g></g><g fill="#c4b789" fill-opacity="1"><g transform="translate(415.538677, 26.598857)"><g><path d="M 7.78125 0.328125 C 6.539062 0.328125 5.421875 0.0273438 4.421875 -0.5625 C 3.421875 -1.15625 2.632812 -1.957031 2.0625 -2.96875 C 1.488281 -3.976562 1.203125 -5.070312 1.203125 -6.25 C 1.203125 -7.4375 1.488281 -8.539062 2.0625 -9.5625 C 2.632812 -10.59375 3.421875 -11.410156 4.421875 -12.015625 C 5.421875 -12.617188 6.539062 -12.921875 7.78125 -12.921875 C 9.007812 -12.921875 10.125 -12.617188 11.125 -12.015625 C 12.132812 -11.410156 12.921875 -10.59375 13.484375 -9.5625 C 14.054688 -8.539062 14.34375 -7.4375 14.34375 -6.25 C 14.34375 -5.070312 14.054688 -3.976562 13.484375 -2.96875 C 12.921875 -1.957031 12.132812 -1.15625 11.125 -0.5625 C 10.125 0.0273438 9.007812 0.328125 7.78125 0.328125 Z M 7.78125 -1.234375 C 8.695312 -1.234375 9.53125 -1.457031 10.28125 -1.90625 C 11.03125 -2.351562 11.617188 -2.960938 12.046875 -3.734375 C 12.472656 -4.503906 12.6875 -5.335938 12.6875 -6.234375 C 12.6875 -7.148438 12.460938 -8 12.015625 -8.78125 C 11.578125 -9.5625 10.984375 -10.1875 10.234375 -10.65625 C 9.484375 -11.125 8.664062 -11.359375 7.78125 -11.359375 C 6.894531 -11.359375 6.078125 -11.125 5.328125 -10.65625 C 4.578125 -10.1875 3.976562 -9.5625 3.53125 -8.78125 C 3.09375 -8 2.875 -7.148438 2.875 -6.234375 C 2.875 -5.316406 3.082031 -4.476562 3.5 -3.71875 C 3.925781 -2.957031 4.507812 -2.351562 5.25 -1.90625 C 6 -1.457031 6.84375 -1.234375 7.78125 -1.234375 Z M 7.78125 -1.234375 "/></g></g></g><g fill="#c4b789" fill-opacity="1"><g transform="translate(437.745773, 26.598857)"><g><path d="M 3.515625 -12.59375 L 3.515625 -10.328125 C 4.816406 -12.054688 6.382812 -12.921875 8.21875 -12.921875 C 9.15625 -12.921875 9.972656 -12.703125 10.671875 -12.265625 C 11.378906 -11.828125 11.925781 -11.171875 12.3125 -10.296875 C 12.695312 -9.421875 12.890625 -8.34375 12.890625 -7.0625 L 12.890625 0 L 11.28125 0 L 11.28125 -6.84375 C 11.28125 -8.382812 11.015625 -9.535156 10.484375 -10.296875 C 9.953125 -11.066406 9.097656 -11.453125 7.921875 -11.453125 C 7.140625 -11.453125 6.410156 -11.238281 5.734375 -10.8125 C 5.066406 -10.382812 4.53125 -9.765625 4.125 -8.953125 C 3.71875 -8.140625 3.515625 -7.171875 3.515625 -6.046875 L 3.515625 0 L 1.890625 0 L 1.890625 -12.59375 Z M 3.515625 -12.59375 "/></g></g></g><g fill="#c4b789" fill-opacity="1"><g transform="translate(458.981197, 26.598857)"><g/></g></g><g fill="#c4b789" fill-opacity="1"><g transform="translate(472.230393, 26.598857)"><g><path d="M 7.78125 0.3125 C 6.414062 0.3125 5.238281 0.0117188 4.25 -0.578125 C 3.257812 -1.171875 2.503906 -1.96875 1.984375 -2.96875 C 1.460938 -3.976562 1.203125 -5.070312 1.203125 -6.25 C 1.203125 -7.40625 1.472656 -8.492188 2.015625 -9.515625 C 2.554688 -10.535156 3.316406 -11.359375 4.296875 -11.984375 C 5.285156 -12.609375 6.414062 -12.921875 7.6875 -12.921875 C 8.894531 -12.921875 9.992188 -12.632812 10.984375 -12.0625 C 11.984375 -11.5 12.769531 -10.707031 13.34375 -9.6875 C 13.914062 -8.675781 14.203125 -7.539062 14.203125 -6.28125 L 14.203125 -6.15625 L 2.875 -6.15625 C 2.90625 -5.195312 3.128906 -4.34375 3.546875 -3.59375 C 3.960938 -2.851562 4.535156 -2.273438 5.265625 -1.859375 C 5.992188 -1.453125 6.832031 -1.25 7.78125 -1.25 C 8.894531 -1.25 9.804688 -1.507812 10.515625 -2.03125 C 11.234375 -2.5625 11.867188 -3.273438 12.421875 -4.171875 L 13.765625 -3.453125 C 13.148438 -2.273438 12.332031 -1.351562 11.3125 -0.6875 C 10.300781 -0.0195312 9.125 0.3125 7.78125 0.3125 Z M 12.421875 -7.578125 C 12.109375 -8.828125 11.523438 -9.769531 10.671875 -10.40625 C 9.828125 -11.039062 8.835938 -11.359375 7.703125 -11.359375 C 6.546875 -11.359375 5.566406 -11.046875 4.765625 -10.421875 C 3.972656 -9.796875 3.394531 -8.847656 3.03125 -7.578125 Z M 12.421875 -7.578125 "/></g></g></g><g fill="#c4b789" fill-opacity="1"><g transform="translate(493.963453, 26.598857)"><g><path d="M 2.296875 -12.59375 L 5.640625 -7.9375 L 8.984375 -12.59375 L 10.90625 -12.59375 L 6.609375 -6.609375 L 11.453125 0 L 9.484375 0 L 5.640625 -5.28125 L 1.84375 0 L -0.09375 0 L 4.671875 -6.609375 L 0.359375 -12.59375 Z M 2.296875 -12.59375 "/></g></g></g><g fill="#c4b789" fill-opacity="1"><g transform="translate(512.023386, 26.598857)"><g><path d="M 3.25 -11.171875 L 1.015625 -11.171875 L 1.015625 -12.59375 L 3.25 -12.59375 L 3.25 -17.28125 L 4.859375 -17.28125 L 4.859375 -12.59375 L 7.4375 -12.59375 L 7.4375 -11.171875 L 4.859375 -11.171875 L 4.859375 0 L 3.25 0 Z M 3.25 -11.171875 "/></g></g></g><g fill="#c4b789" fill-opacity="1"><g transform="translate(526.267823, 26.598857)"><g><path d="M 7.78125 0.3125 C 6.414062 0.3125 5.238281 0.0117188 4.25 -0.578125 C 3.257812 -1.171875 2.503906 -1.96875 1.984375 -2.96875 C 1.460938 -3.976562 1.203125 -5.070312 1.203125 -6.25 C 1.203125 -7.40625 1.472656 -8.492188 2.015625 -9.515625 C 2.554688 -10.535156 3.316406 -11.359375 4.296875 -11.984375 C 5.285156 -12.609375 6.414062 -12.921875 7.6875 -12.921875 C 8.894531 -12.921875 9.992188 -12.632812 10.984375 -12.0625 C 11.984375 -11.5 12.769531 -10.707031 13.34375 -9.6875 C 13.914062 -8.675781 14.203125 -7.539062 14.203125 -6.28125 L 14.203125 -6.15625 L 2.875 -6.15625 C 2.90625 -5.195312 3.128906 -4.34375 3.546875 -3.59375 C 3.960938 -2.851562 4.535156 -2.273438 5.265625 -1.859375 C 5.992188 -1.453125 6.832031 -1.25 7.78125 -1.25 C 8.894531 -1.25 9.804688 -1.507812 10.515625 -2.03125 C 11.234375 -2.5625 11.867188 -3.273438 12.421875 -4.171875 L 13.765625 -3.453125 C 13.148438 -2.273438 12.332031 -1.351562 11.3125 -0.6875 C 10.300781 -0.0195312 9.125 0.3125 7.78125 0.3125 Z M 12.421875 -7.578125 C 12.109375 -8.828125 11.523438 -9.769531 10.671875 -10.40625 C 9.828125 -11.039062 8.835938 -11.359375 7.703125 -11.359375 C 6.546875 -11.359375 5.566406 -11.046875 4.765625 -10.421875 C 3.972656 -9.796875 3.394531 -8.847656 3.03125 -7.578125 Z M 12.421875 -7.578125 "/></g></g></g><g fill="#c4b789" fill-opacity="1"><g transform="translate(548.356419, 26.598857)"><g><path d="M 3.515625 -12.59375 L 3.515625 -10.328125 C 4.816406 -12.054688 6.382812 -12.921875 8.21875 -12.921875 C 9.15625 -12.921875 9.972656 -12.703125 10.671875 -12.265625 C 11.378906 -11.828125 11.925781 -11.171875 12.3125 -10.296875 C 12.695312 -9.421875 12.890625 -8.34375 12.890625 -7.0625 L 12.890625 0 L 11.28125 0 L 11.28125 -6.84375 C 11.28125 -8.382812 11.015625 -9.535156 10.484375 -10.296875 C 9.953125 -11.066406 9.097656 -11.453125 7.921875 -11.453125 C 7.140625 -11.453125 6.410156 -11.238281 5.734375 -10.8125 C 5.066406 -10.382812 4.53125 -9.765625 4.125 -8.953125 C 3.71875 -8.140625 3.515625 -7.171875 3.515625 -6.046875 L 3.515625 0 L 1.890625 0 L 1.890625 -12.59375 Z M 3.515625 -12.59375 "/></g></g></g><g fill="#c4b789" fill-opacity="1"><g transform="translate(569.591842, 26.598857)"><g><path d="M 4.53125 0.328125 C 3.8125 0.328125 3.117188 0.167969 2.453125 -0.140625 C 1.796875 -0.453125 1.25 -0.894531 0.8125 -1.46875 L 1.828125 -2.625 C 2.660156 -1.695312 3.535156 -1.234375 4.453125 -1.234375 C 4.867188 -1.234375 5.253906 -1.320312 5.609375 -1.5 C 5.960938 -1.6875 6.242188 -1.941406 6.453125 -2.265625 C 6.671875 -2.585938 6.78125 -2.9375 6.78125 -3.3125 C 6.78125 -3.738281 6.671875 -4.101562 6.453125 -4.40625 C 6.242188 -4.707031 5.898438 -4.984375 5.421875 -5.234375 C 4.429688 -5.773438 3.675781 -6.21875 3.15625 -6.5625 C 2.632812 -6.914062 2.207031 -7.335938 1.875 -7.828125 C 1.539062 -8.316406 1.375 -8.898438 1.375 -9.578125 C 1.375 -10.222656 1.523438 -10.796875 1.828125 -11.296875 C 2.140625 -11.804688 2.5625 -12.203125 3.09375 -12.484375 C 3.625 -12.773438 4.203125 -12.921875 4.828125 -12.921875 C 5.484375 -12.921875 6.085938 -12.773438 6.640625 -12.484375 C 7.191406 -12.203125 7.75 -11.78125 8.3125 -11.21875 L 7.28125 -10.140625 C 6.863281 -10.535156 6.453125 -10.835938 6.046875 -11.046875 C 5.648438 -11.253906 5.210938 -11.359375 4.734375 -11.359375 C 4.390625 -11.359375 4.070312 -11.28125 3.78125 -11.125 C 3.5 -10.976562 3.269531 -10.773438 3.09375 -10.515625 C 2.925781 -10.265625 2.84375 -9.984375 2.84375 -9.671875 C 2.84375 -9.242188 2.96875 -8.867188 3.21875 -8.546875 C 3.476562 -8.234375 3.867188 -7.9375 4.390625 -7.65625 C 5.398438 -7.101562 6.160156 -6.648438 6.671875 -6.296875 C 7.179688 -5.941406 7.582031 -5.535156 7.875 -5.078125 C 8.164062 -4.617188 8.3125 -4.054688 8.3125 -3.390625 C 8.3125 -2.722656 8.15625 -2.101562 7.84375 -1.53125 C 7.53125 -0.96875 7.082031 -0.515625 6.5 -0.171875 C 5.925781 0.160156 5.269531 0.328125 4.53125 0.328125 Z M 4.53125 0.328125 "/></g></g></g><g fill="#c4b789" fill-opacity="1"><g transform="translate(585.471559, 26.598857)"><g><path d="M 2.609375 -15.09375 C 2.242188 -15.09375 1.929688 -15.226562 1.671875 -15.5 C 1.410156 -15.769531 1.28125 -16.085938 1.28125 -16.453125 C 1.28125 -16.828125 1.410156 -17.140625 1.671875 -17.390625 C 1.929688 -17.648438 2.242188 -17.78125 2.609375 -17.78125 C 2.972656 -17.78125 3.285156 -17.648438 3.546875 -17.390625 C 3.816406 -17.128906 3.953125 -16.816406 3.953125 -16.453125 C 3.953125 -16.085938 3.816406 -15.769531 3.546875 -15.5 C 3.285156 -15.226562 2.972656 -15.09375 2.609375 -15.09375 Z M 1.828125 -12.59375 L 3.4375 -12.59375 L 3.4375 0 L 1.828125 0 Z M 1.828125 -12.59375 "/></g></g></g><g fill="#c4b789" fill-opacity="1"><g transform="translate(597.393612, 26.598857)"><g><path d="M 7.78125 0.328125 C 6.539062 0.328125 5.421875 0.0273438 4.421875 -0.5625 C 3.421875 -1.15625 2.632812 -1.957031 2.0625 -2.96875 C 1.488281 -3.976562 1.203125 -5.070312 1.203125 -6.25 C 1.203125 -7.4375 1.488281 -8.539062 2.0625 -9.5625 C 2.632812 -10.59375 3.421875 -11.410156 4.421875 -12.015625 C 5.421875 -12.617188 6.539062 -12.921875 7.78125 -12.921875 C 9.007812 -12.921875 10.125 -12.617188 11.125 -12.015625 C 12.132812 -11.410156 12.921875 -10.59375 13.484375 -9.5625 C 14.054688 -8.539062 14.34375 -7.4375 14.34375 -6.25 C 14.34375 -5.070312 14.054688 -3.976562 13.484375 -2.96875 C 12.921875 -1.957031 12.132812 -1.15625 11.125 -0.5625 C 10.125 0.0273438 9.007812 0.328125 7.78125 0.328125 Z M 7.78125 -1.234375 C 8.695312 -1.234375 9.53125 -1.457031 10.28125 -1.90625 C 11.03125 -2.351562 11.617188 -2.960938 12.046875 -3.734375 C 12.472656 -4.503906 12.6875 -5.335938 12.6875 -6.234375 C 12.6875 -7.148438 12.460938 -8 12.015625 -8.78125 C 11.578125 -9.5625 10.984375 -10.1875 10.234375 -10.65625 C 9.484375 -11.125 8.664062 -11.359375 7.78125 -11.359375 C 6.894531 -11.359375 6.078125 -11.125 5.328125 -10.65625 C 4.578125 -10.1875 3.976562 -9.5625 3.53125 -8.78125 C 3.09375 -8 2.875 -7.148438 2.875 -6.234375 C 2.875 -5.316406 3.082031 -4.476562 3.5 -3.71875 C 3.925781 -2.957031 4.507812 -2.351562 5.25 -1.90625 C 6 -1.457031 6.84375 -1.234375 7.78125 -1.234375 Z M 7.78125 -1.234375 "/></g></g></g><g fill="#c4b789" fill-opacity="1"><g transform="translate(619.600742, 26.598857)"><g><path d="M 3.515625 -12.59375 L 3.515625 -10.328125 C 4.816406 -12.054688 6.382812 -12.921875 8.21875 -12.921875 C 9.15625 -12.921875 9.972656 -12.703125 10.671875 -12.265625 C 11.378906 -11.828125 11.925781 -11.171875 12.3125 -10.296875 C 12.695312 -9.421875 12.890625 -8.34375 12.890625 -7.0625 L 12.890625 0 L 11.28125 0 L 11.28125 -6.84375 C 11.28125 -8.382812 11.015625 -9.535156 10.484375 -10.296875 C 9.953125 -11.066406 9.097656 -11.453125 7.921875 -11.453125 C 7.140625 -11.453125 6.410156 -11.238281 5.734375 -10.8125 C 5.066406 -10.382812 4.53125 -9.765625 4.125 -8.953125 C 3.71875 -8.140625 3.515625 -7.171875 3.515625 -6.046875 L 3.515625 0 L 1.890625 0 L 1.890625 -12.59375 Z M 3.515625 -12.59375 "/></g></g></g><g fill="#c4b789" fill-opacity="1"><g transform="translate(640.836165, 26.598857)"><g/></g></g><g fill="#c4b789" fill-opacity="1"><g transform="translate(654.085362, 26.598857)"><g><path d="M 0.90625 -11.171875 L 0.90625 -12.59375 L 2.5625 -12.59375 L 2.5625 -14.546875 C 2.5625 -15.273438 2.632812 -15.875 2.78125 -16.34375 C 2.9375 -16.8125 3.195312 -17.171875 3.5625 -17.421875 C 3.9375 -17.671875 4.457031 -17.796875 5.125 -17.796875 C 5.414062 -17.796875 5.707031 -17.765625 6 -17.703125 C 6.300781 -17.640625 6.625 -17.554688 6.96875 -17.453125 L 6.96875 -15.859375 C 6.695312 -15.960938 6.445312 -16.050781 6.21875 -16.125 C 5.988281 -16.195312 5.734375 -16.234375 5.453125 -16.234375 C 5.035156 -16.234375 4.738281 -16.160156 4.5625 -16.015625 C 4.382812 -15.878906 4.273438 -15.679688 4.234375 -15.421875 C 4.191406 -15.171875 4.171875 -14.796875 4.171875 -14.296875 L 4.171875 -12.59375 L 6.828125 -12.59375 L 6.828125 -11.171875 L 4.171875 -11.171875 L 4.171875 0 L 2.5625 0 L 2.5625 -11.171875 Z M 0.90625 -11.171875 "/></g></g></g><g fill="#c4b789" fill-opacity="1"><g transform="translate(667.974396, 26.598857)"><g><path d="M 7.78125 0.328125 C 6.539062 0.328125 5.421875 0.0273438 4.421875 -0.5625 C 3.421875 -1.15625 2.632812 -1.957031 2.0625 -2.96875 C 1.488281 -3.976562 1.203125 -5.070312 1.203125 -6.25 C 1.203125 -7.4375 1.488281 -8.539062 2.0625 -9.5625 C 2.632812 -10.59375 3.421875 -11.410156 4.421875 -12.015625 C 5.421875 -12.617188 6.539062 -12.921875 7.78125 -12.921875 C 9.007812 -12.921875 10.125 -12.617188 11.125 -12.015625 C 12.132812 -11.410156 12.921875 -10.59375 13.484375 -9.5625 C 14.054688 -8.539062 14.34375 -7.4375 14.34375 -6.25 C 14.34375 -5.070312 14.054688 -3.976562 13.484375 -2.96875 C 12.921875 -1.957031 12.132812 -1.15625 11.125 -0.5625 C 10.125 0.0273438 9.007812 0.328125 7.78125 0.328125 Z M 7.78125 -1.234375 C 8.695312 -1.234375 9.53125 -1.457031 10.28125 -1.90625 C 11.03125 -2.351562 11.617188 -2.960938 12.046875 -3.734375 C 12.472656 -4.503906 12.6875 -5.335938 12.6875 -6.234375 C 12.6875 -7.148438 12.460938 -8 12.015625 -8.78125 C 11.578125 -9.5625 10.984375 -10.1875 10.234375 -10.65625 C 9.484375 -11.125 8.664062 -11.359375 7.78125 -11.359375 C 6.894531 -11.359375 6.078125 -11.125 5.328125 -10.65625 C 4.578125 -10.1875 3.976562 -9.5625 3.53125 -8.78125 C 3.09375 -8 2.875 -7.148438 2.875 -6.234375 C 2.875 -5.316406 3.082031 -4.476562 3.5 -3.71875 C 3.925781 -2.957031 4.507812 -2.351562 5.25 -1.90625 C 6 -1.457031 6.84375 -1.234375 7.78125 -1.234375 Z M 7.78125 -1.234375 "/></g></g></g><g fill="#c4b789" fill-opacity="1"><g transform="translate(690.18146, 26.598857)"><g><path d="M 3.515625 -12.59375 L 3.515625 -10.765625 C 4.003906 -11.472656 4.507812 -12.007812 5.03125 -12.375 C 5.5625 -12.738281 6.132812 -12.921875 6.75 -12.921875 C 7.050781 -12.921875 7.316406 -12.882812 7.546875 -12.8125 C 7.773438 -12.738281 7.992188 -12.628906 8.203125 -12.484375 L 7.34375 -11.109375 C 7.03125 -11.273438 6.75 -11.359375 6.5 -11.359375 C 5.925781 -11.359375 5.414062 -11.144531 4.96875 -10.71875 C 4.519531 -10.300781 4.164062 -9.710938 3.90625 -8.953125 C 3.644531 -8.203125 3.515625 -7.335938 3.515625 -6.359375 L 3.515625 0 L 1.890625 0 L 1.890625 -12.59375 Z M 3.515625 -12.59375 "/></g></g></g><g fill="#c4b789" fill-opacity="1"><g transform="translate(704.639233, 26.598857)"><g/></g></g><g fill="#c4b789" fill-opacity="1"><g transform="translate(717.888429, 26.598857)"><g><path d="M 2.0625 -17.015625 L 3.765625 -17.015625 L 3.765625 0 L 2.0625 0 Z M 2.0625 -17.015625 "/></g></g></g><g fill="#c4b789" fill-opacity="1"><g transform="translate(730.379286, 26.598857)"><g><path d="M 6.25 -17.015625 C 8.40625 -17.015625 10.238281 -16.6875 11.75 -16.03125 C 13.269531 -15.375 14.425781 -14.398438 15.21875 -13.109375 C 16.019531 -11.816406 16.421875 -10.21875 16.421875 -8.3125 C 16.421875 -5.601562 15.648438 -3.539062 14.109375 -2.125 C 12.566406 -0.707031 10.210938 0 7.046875 0 L 2.0625 0 L 2.0625 -17.015625 Z M 7.046875 -1.65625 C 9.523438 -1.65625 11.410156 -2.191406 12.703125 -3.265625 C 14.003906 -4.347656 14.65625 -6.023438 14.65625 -8.296875 C 14.65625 -10.734375 13.921875 -12.519531 12.453125 -13.65625 C 10.992188 -14.789062 8.925781 -15.359375 6.25 -15.359375 L 3.765625 -15.359375 L 3.765625 -1.65625 Z M 7.046875 -1.65625 "/></g></g></g><g fill="#c4b789" fill-opacity="1"><g transform="translate(754.814033, 26.598857)"><g><path d="M 2.0625 -17.015625 L 11.78125 -17.015625 L 11.78125 -15.390625 L 3.765625 -15.390625 L 3.765625 -10 L 11.78125 -10 L 11.78125 -8.390625 L 3.765625 -8.390625 L 3.765625 -1.65625 L 11.78125 -1.65625 L 11.78125 0 L 2.0625 0 Z M 2.0625 -17.015625 "/></g></g></g></g></g></svg>